# xmcd
#
# Track frame offsets: 
#        150
#        16152
#        33311
#        48959
#        59591
#        77696
#        97888
#        109587
#        120215
#        135056
#        156318
#        177519
#
# Disc length: 2710 seconds
#
# Revision: 0
# Processed by: cddbd v1.5.2PL0 Copyright (c) Steve Scherf et al.
# Submitted via: ExactAudioCopy v1.0b3
#
DISCID=860a940c
DTITLE=Branded Duo - Above The Noise (2008)
DYEAR=2008
DGENRE=Country and Folk
TTITLE0=Trading My Sorrows
TTITLE1=Above The Noise
TTITLE2=Open The Eyes Of My Heart
TTITLE3=Stand Firm
TTITLE4=Hymn Medley
TTITLE5=Amazing Love
TTITLE6=Lord I Lift Your Name On High
TTITLE7=Step By Step
TTITLE8=Give Us Clean Hands
TTITLE9=I See You
TTITLE10=We Cry Out
TTITLE11=Beautiful Name - Oh How I Love Jesus
EXTD=
EXTT0=
EXTT1=
EXTT2=
EXTT3=
EXTT4=
EXTT5=
EXTT6=
EXTT7=
EXTT8=
EXTT9=
EXTT10=
EXTT11=
PLAYORDER=
